<svg width="24" height="24" viewBox="0 0 24 24" fill="none" xmlns="http://www.w3.org/2000/svg">
<g clip-path="url(#clip0_1_20)">
<path d="M6 13C4.333 13 1 14 1 18C1 22 4.333 23 6 23H18C19.667 23 23 22 23 18C23 14 19.667 13 18 13M19 9H20M12 2V1M18.5 3.5L17.5 4.5M5.5 3.5L6.5 4.5M4 9H5M12 12C12.7956 12 13.5587 11.6839 14.1213 11.1213C14.6839 10.5587 15 9.79565 15 9C15 8.20435 14.6839 7.44129 14.1213 6.87868C13.5587 6.31607 12.7956 6 12 6C11.2044 6 10.4413 6.31607 9.87868 6.87868C9.31607 7.44129 9 8.20435 9 9C9 9.79565 9.31607 10.5587 9.87868 11.1213C10.4413 11.6839 11.2044 12 12 12Z" stroke="black" stroke-width="1.5" stroke-linecap="round" stroke-linejoin="round"/>
</g>
<defs>
<clipPath id="clip0_1_20">
<rect width="24" height="24" fill="white"/>
</clipPath>
</defs>
</svg>
