<svg width="253" height="25" viewBox="0 0 253 25" fill="none" xmlns="http://www.w3.org/2000/svg">
<path fill-rule="evenodd" clip-rule="evenodd" d="M9.00697 15.124C8.82064 14.3241 8.63431 13.6376 8.44798 12.96L4.73598 0.608017H0.47998L7.45598 24H11.488L16.576 6.97602L21.568 24H25.536L32.64 0.608017H28.48L24.704 12.992C24.5033 13.6671 24.313 14.3629 24.1035 15.2397C23.9455 15.9008 23.7766 16.6647 23.584 17.6C23.41 16.7009 23.2425 15.9332 23.0757 15.2404C22.8744 14.4044 22.674 13.6774 22.464 12.96L18.848 0.608017H14.336L10.656 12.96C10.4358 13.6712 10.2336 14.3466 10.0351 15.1331C9.85848 15.8329 9.68478 16.6207 9.50398 17.6C9.33831 16.6361 9.17264 15.8352 9.00697 15.124ZM15.0815 1.60802L11.6113 13.2557C11.2026 14.5761 10.862 15.7522 10.4874 17.7816L8.51843 17.7694C8.17556 15.7745 7.83436 14.5002 7.4869 13.2365L3.99232 1.60802H1.82172L8.20128 23H10.7431L16.5851 3.45331L22.3169 23H24.7946L31.2912 1.60802H29.2205L25.6625 13.277C25.6622 13.2781 25.6619 13.2792 25.6615 13.2803C25.3198 14.43 25.0066 15.6491 24.5634 17.8017L22.6022 17.79C22.2249 15.8408 21.8807 14.5273 21.5042 13.2409L18.0988 1.60802H15.0815ZM41.2519 18.0236C41.7661 20.1448 43.1749 21.216 45.4357 21.216C47.5797 21.216 48.9877 20.384 49.4357 18.88H53.0517C52.9842 19.2275 52.8943 19.5611 52.783 19.88C51.788 22.7333 49.0847 24.416 45.3717 24.416C40.6677 24.416 37.3717 20.992 37.3717 16.096C37.3717 11.136 40.6037 7.71202 45.2437 7.71202C49.9797 7.71202 52.9877 10.88 52.9877 15.808V16.9913L41.0837 17.024C41.1205 17.3797 41.1766 17.7129 41.2519 18.0236ZM51.9877 15.9947L39.9753 16.027L40.089 17.1269C40.2483 18.666 40.7497 19.9686 41.7026 20.8848C42.6652 21.8104 43.957 22.216 45.4357 22.216C47.5334 22.216 49.2901 21.4761 50.1089 19.88H51.7126C51.3235 20.8079 50.7135 21.5626 49.9228 22.1329C48.8065 22.938 47.2711 23.416 45.3717 23.416C43.2715 23.416 41.5384 22.6567 40.3284 21.3988C39.1158 20.1381 38.3717 18.3162 38.3717 16.096C38.3717 13.835 39.1056 11.9952 40.2962 10.7291C41.4826 9.46753 43.1805 8.71202 45.2437 8.71202C47.3812 8.71202 49.0407 9.42113 50.1684 10.6025C51.3008 11.7889 51.9877 13.5474 51.9877 15.808V15.9947ZM50.1157 15.528H40.0045L40.1926 14.3679C40.4106 13.0237 40.9391 11.8837 41.8455 11.0827C42.7569 10.2773 43.94 9.91202 45.2757 9.91202C46.6495 9.91202 47.872 10.3384 48.759 11.1776C49.6511 12.0217 50.1157 13.2008 50.1157 14.528V15.528ZM41.4248 13.528C42.0116 11.8101 43.3213 10.912 45.2757 10.912C47.2319 10.912 48.6047 11.9218 48.9993 13.528C49.076 13.8399 49.1157 14.1742 49.1157 14.528H41.1797C41.238 14.1688 41.3198 13.8353 41.4248 13.528ZM72.0891 19.2431L72.5523 23H74.092V14.4C74.092 12.4102 73.5018 11.0288 72.5607 10.1384C71.6108 9.23967 70.1669 8.71202 68.212 8.71202C66.2326 8.71202 64.6951 9.22942 63.6751 10.0421C62.9248 10.64 62.4175 11.4244 62.2114 12.376H63.5668C63.7587 11.682 64.1612 11.0842 64.7708 10.635C65.614 10.0136 66.7496 9.75202 68.02 9.75202C69.1351 9.75202 70.2242 9.99185 71.0446 10.6909C71.8948 11.4154 72.284 12.4832 72.284 13.76V15.0405L66.6247 15.4611C66.6242 15.4611 66.6238 15.4611 66.6234 15.4612C64.885 15.5951 63.6508 16.0774 62.8678 16.7504C62.1116 17.4003 61.692 18.2978 61.692 19.488C61.692 20.7369 62.115 21.6879 62.8141 22.3331C63.5214 22.9858 64.611 23.416 66.1 23.416C68.0279 23.416 69.5164 22.6629 70.1892 21.7492C69.3888 22.2363 68.4245 22.472 67.38 22.472C66.392 22.472 65.4556 22.2785 64.7479 21.7308C63.9943 21.1476 63.66 20.2899 63.66 19.328C63.66 18.4005 64.0201 17.5647 64.8416 16.97C65.5932 16.4259 66.6466 16.1463 67.9283 16.0282L67.9354 16.0276L72.316 15.6873V17.6C72.316 18.1821 72.2403 18.7338 72.0891 19.2431ZM61.108 13.376C61.108 13.0302 61.1367 12.6966 61.1927 12.376C61.6917 9.52245 64.357 7.71202 68.212 7.71202C72.468 7.71202 75.092 10.016 75.092 14.4V24H71.668L71.38 21.664C71.1962 22.1104 70.9023 22.5184 70.5218 22.8758C69.5112 23.8249 67.8901 24.416 66.1 24.416C62.74 24.416 60.692 22.464 60.692 19.488C60.692 16.576 62.804 14.752 66.548 14.464L71.284 14.112V13.76C71.284 11.616 70.004 10.752 68.02 10.752C65.716 10.752 64.436 11.712 64.436 13.376H61.108ZM71.3134 17.7712C71.2427 20.0995 69.7231 21.472 67.38 21.472C65.62 21.472 64.66 20.768 64.66 19.328C64.66 18.048 65.588 17.248 68.02 17.024L71.316 16.768V17.6C71.316 17.6576 71.3151 17.7147 71.3134 17.7712ZM88.5245 10.456H91.5965V9.19202H88.5245V4.26402H86.6205V9.19202H83.5805V10.456H86.6205V23H88.5245V10.456ZM89.5245 24H85.6205V11.456H82.5805V8.19202H85.6205V3.26402H89.5245V8.19202H92.5965V11.456H89.5245V24ZM104.399 0.192017H100.463V24H104.367V15.36C104.367 12.992 105.807 11.264 108.271 11.264C110.255 11.264 111.567 12.544 111.567 15.2V24H115.471V14.272C115.471 10.176 113.423 7.71202 109.519 7.71202C107.87 7.71202 106.439 8.23515 105.399 9.10984C105.007 9.43965 104.671 9.81944 104.399 10.24V0.192017ZM114.471 23V14.272C114.471 12.3781 113.998 11.0066 113.211 10.1194C112.441 9.25111 111.253 8.71202 109.519 8.71202C107.538 8.71202 106.022 9.5706 105.24 10.7825L104.491 11.9413C104.545 11.8754 104.601 11.8109 104.659 11.7479C105.537 10.7902 106.793 10.264 108.271 10.264C109.487 10.264 110.609 10.6636 111.413 11.5739C112.202 12.4671 112.567 13.7193 112.567 15.2V23H114.471ZM103.937 12.7994L103.399 13.6316V1.19202H101.463V23H103.367V15.36C103.367 14.4384 103.555 13.5619 103.937 12.7994ZM127.699 18.0236C128.214 20.1448 129.622 21.216 131.883 21.216C134.027 21.216 135.435 20.384 135.883 18.88H139.499C139.432 19.2275 139.342 19.5611 139.231 19.88C138.235 22.7333 135.532 24.416 131.819 24.416C127.115 24.416 123.819 20.992 123.819 16.096C123.819 11.136 127.051 7.71202 131.691 7.71202C136.427 7.71202 139.435 10.88 139.435 15.808V16.992L127.531 17.024C127.568 17.3797 127.624 17.7129 127.699 18.0236ZM138.435 15.9947L126.423 16.027L126.537 17.1269C126.696 18.666 127.197 19.9686 128.15 20.8848C129.113 21.8104 130.405 22.216 131.883 22.216C133.981 22.216 135.738 21.4761 136.556 19.88H138.16C137.771 20.8079 137.161 21.5626 136.37 22.1329C135.254 22.938 133.719 23.416 131.819 23.416C129.719 23.416 127.986 22.6567 126.776 21.3988C125.563 20.1381 124.819 18.3162 124.819 16.096C124.819 13.835 125.553 11.9952 126.744 10.7291C127.93 9.46753 129.628 8.71202 131.691 8.71202C133.829 8.71202 135.488 9.42113 136.616 10.6025C137.748 11.7889 138.435 13.5474 138.435 15.808V15.9947ZM136.563 15.528H126.452L126.64 14.3679C126.858 13.0237 127.387 11.8837 128.293 11.0827C129.204 10.2773 130.388 9.91202 131.723 9.91202C133.097 9.91202 134.32 10.3384 135.206 11.1776C136.099 12.0217 136.563 13.2008 136.563 14.528V15.528ZM127.872 13.528C128.459 11.8101 129.769 10.912 131.723 10.912C133.679 10.912 135.052 11.9218 135.447 13.528C135.523 13.8399 135.563 14.1742 135.563 14.528H127.627C127.685 14.1688 127.767 13.8353 127.872 13.528ZM151.68 8.22402H148V24H151.904V16.32C151.904 13.248 153.664 11.744 156.48 11.744H157.92V8.12802C157.28 7.96802 156.736 7.90402 156.192 7.90402C154.746 7.90402 153.585 8.39898 152.781 9.21435C152.41 9.58994 152.116 10.0335 151.904 10.528L151.68 8.22402ZM150.772 9.22402H149V23H150.904V16.32C150.904 14.5936 151.403 13.1571 152.443 12.1585C153.477 11.1668 154.902 10.744 156.48 10.744H156.92V8.9514C156.667 8.91816 156.429 8.90402 156.192 8.90402C154.452 8.90402 153.327 9.74616 152.823 10.9219L150.908 10.6248L150.772 9.22402ZM172.306 15.124C172.119 14.3241 171.933 13.6376 171.747 12.96L168.035 0.608017H163.779L170.755 24H174.787L179.875 6.97602L184.867 24H188.835L195.939 0.608017H191.779L188.003 12.992C187.802 13.6671 187.612 14.3629 187.402 15.2397C187.244 15.9008 187.075 16.6647 186.883 17.6C186.709 16.7009 186.541 15.9332 186.374 15.2404C186.173 14.4044 185.973 13.6774 185.763 12.96L182.147 0.608017H177.635L173.955 12.96C173.735 13.6712 173.532 14.3466 173.334 15.1331C173.157 15.8329 172.984 16.6207 172.803 17.6C172.637 16.6361 172.471 15.8352 172.306 15.124ZM178.38 1.60802L174.91 13.2557C174.501 14.5761 174.161 15.7522 173.786 17.7816L171.817 17.7694C171.474 15.7745 171.133 14.5002 170.786 13.2365L167.291 1.60802H165.12L171.5 23H174.042L179.884 3.45331L185.616 23H188.093L194.59 1.60802H192.519L188.961 13.277C188.961 13.278 188.961 13.279 188.96 13.2801C188.619 14.4298 188.305 15.6489 187.862 17.8017L185.901 17.79C185.524 15.8408 185.18 14.5273 184.803 13.2409L181.398 1.60802H178.38ZM205.832 4.02402C206.551 4.02402 207.168 3.4246 207.168 2.65602C207.168 1.90522 206.568 1.32002 205.832 1.32002C205.013 1.32002 204.432 1.92267 204.432 2.65602C204.432 3.40698 205.031 4.02402 205.832 4.02402ZM207.784 24H203.88V8.19202H207.784V24ZM206.784 9.19202H204.88V23H206.784V9.19202ZM220.745 17.184L223.593 17.856C225.001 18.176 225.417 18.752 225.417 19.552C225.417 20.704 224.425 21.44 222.601 21.44C220.809 21.44 219.785 20.576 219.753 19.2H216.041C216.041 19.5462 216.072 19.8801 216.133 20.2C216.616 22.7488 218.976 24.416 222.473 24.416C226.377 24.416 229.097 22.432 229.097 19.232C229.097 16.8 227.753 15.584 225.097 14.976L222.249 14.304C220.905 13.984 220.201 13.408 220.201 12.512C220.201 11.328 221.097 10.624 222.633 10.624C224.137 10.624 225.033 11.488 225.065 12.832H228.777C228.774 12.4851 228.74 12.1513 228.678 11.832C228.189 9.32362 225.944 7.71202 222.793 7.71202C219.145 7.71202 216.521 9.56802 216.521 12.672C216.521 15.2 217.897 16.544 220.745 17.184ZM227.654 11.832C227.459 11.0375 227.042 10.3815 226.455 9.88009C225.624 9.16889 224.382 8.71202 222.793 8.71202C221.127 8.71202 219.791 9.13706 218.897 9.82181C218.03 10.4866 217.521 11.4344 217.521 12.672C217.521 13.7423 217.806 14.4405 218.288 14.9449C218.796 15.4763 219.635 15.9096 220.964 16.2083L220.975 16.2107L223.815 16.8809C223.816 16.8812 223.818 16.8815 223.819 16.8818C224.604 17.0607 225.273 17.3432 225.745 17.8219C226.255 18.3389 226.417 18.9615 226.417 19.552C226.417 20.4577 226.007 21.2372 225.261 21.7515C224.558 22.2359 223.628 22.44 222.601 22.44C221.556 22.44 220.606 22.1889 219.892 21.6163C219.418 21.2366 219.093 20.7507 218.915 20.2H217.155C217.349 21.0072 217.783 21.68 218.416 22.199C219.311 22.9341 220.676 23.416 222.473 23.416C224.267 23.416 225.691 22.9591 226.641 22.2306C227.565 21.5212 228.097 20.5168 228.097 19.232C228.097 18.2146 227.824 17.5755 227.378 17.1187C226.902 16.6313 226.116 16.2352 224.874 15.9508L224.868 15.9493L222.018 15.2768C221.272 15.0993 220.585 14.8258 220.069 14.382C219.515 13.9052 219.201 13.265 219.201 12.512C219.201 11.6415 219.545 10.8661 220.227 10.3351C220.876 9.82954 221.728 9.62402 222.633 9.62402C223.575 9.62402 224.438 9.89711 225.08 10.4892C225.482 10.861 225.757 11.3214 225.912 11.832H227.654ZM240.462 18.0236C240.976 20.1448 242.385 21.216 244.646 21.216C246.79 21.216 248.198 20.384 248.646 18.88H252.262C252.194 19.2275 252.104 19.5611 251.993 19.88C250.998 22.7333 248.295 24.416 244.582 24.416C239.878 24.416 236.582 20.992 236.582 16.096C236.582 11.136 239.814 7.71202 244.454 7.71202C249.19 7.71202 252.198 10.88 252.198 15.808V16.992L240.294 17.024C240.331 17.3797 240.387 17.7129 240.462 18.0236ZM251.198 15.9947L239.185 16.027L239.299 17.1269C239.458 18.666 239.96 19.9686 240.913 20.8848C241.875 21.8104 243.167 22.216 244.646 22.216C246.743 22.216 248.5 21.4761 249.319 19.88H250.923C250.533 20.8079 249.924 21.5626 249.133 22.1329C248.017 22.938 246.481 23.416 244.582 23.416C242.482 23.416 240.748 22.6567 239.538 21.3988C238.326 20.1381 237.582 18.3162 237.582 16.096C237.582 13.835 238.316 11.9952 239.506 10.7291C240.693 9.46753 242.391 8.71202 244.454 8.71202C246.591 8.71202 248.251 9.42113 249.378 10.6025C250.511 11.7889 251.198 13.5474 251.198 15.808V15.9947ZM249.326 15.528H239.215L239.403 14.3679C239.621 13.0237 240.149 11.8837 241.056 11.0827C241.967 10.2773 243.15 9.91202 244.486 9.91202C245.86 9.91202 247.082 10.3384 247.969 11.1776C248.861 12.0217 249.326 13.2008 249.326 14.528V15.528ZM240.635 13.528C241.222 11.8101 242.531 10.912 244.486 10.912C246.442 10.912 247.815 11.9218 248.209 13.528C248.286 13.8399 248.326 14.1742 248.326 14.528H240.39C240.448 14.1688 240.53 13.8353 240.635 13.528ZM208.168 2.65602C208.168 3.96802 207.112 5.02402 205.832 5.02402C204.488 5.02402 203.432 3.96802 203.432 2.65602C203.432 1.34402 204.488 0.320017 205.832 0.320017C207.112 0.320017 208.168 1.34402 208.168 2.65602Z" fill="white"/>
</svg>
